<svg width="163" height="50" viewBox="0 0 163 50" fill="none" xmlns="http://www.w3.org/2000/svg">
<g filter="url(#filter0_d_1_25201)">
<path d="M12 25C12 11.7452 22.7452 1 36 1H127C140.255 1 151 11.7452 151 25C151 38.2548 140.255 49 127 49H36C22.7452 49 12 38.2548 12 25Z" fill="#F15D2B" shape-rendering="crispEdges"/>
<path d="M29.548 31V18.04H31.024V31H29.548ZM30.304 31V29.704H37.684V31H30.304ZM42.9227 31.18C42.0467 31.18 41.2727 30.976 40.6007 30.568C39.9287 30.148 39.4007 29.578 39.0167 28.858C38.6327 28.138 38.4407 27.31 38.4407 26.374C38.4407 25.438 38.6267 24.616 38.9987 23.908C39.3827 23.188 39.9167 22.63 40.6007 22.234C41.2847 21.838 42.0707 21.64 42.9587 21.64C43.8107 21.64 44.5487 21.826 45.1727 22.198C45.8087 22.57 46.2947 23.092 46.6307 23.764C46.9787 24.436 47.1527 25.228 47.1527 26.14C47.1527 26.26 47.1467 26.374 47.1347 26.482C47.1347 26.59 47.1227 26.71 47.0987 26.842H39.5207V25.636H46.2167L45.7487 26.302C45.7487 25.198 45.5027 24.352 45.0107 23.764C44.5307 23.164 43.8467 22.864 42.9587 22.864C42.0467 22.864 41.3087 23.182 40.7447 23.818C40.1927 24.442 39.9167 25.288 39.9167 26.356C39.9167 27.448 40.1927 28.324 40.7447 28.984C41.3087 29.632 42.0587 29.956 42.9947 29.956C43.5827 29.956 44.0987 29.83 44.5427 29.578C44.9867 29.314 45.3107 28.942 45.5147 28.462H46.8827C46.5827 29.302 46.0787 29.968 45.3707 30.46C44.6747 30.94 43.8587 31.18 42.9227 31.18ZM52.8874 31.162C51.8674 31.162 51.1234 30.934 50.6554 30.478C50.1994 30.01 49.9714 29.338 49.9714 28.462V19.678L51.4114 19.138V28.444C51.4114 28.96 51.5434 29.338 51.8074 29.578C52.0714 29.818 52.5034 29.938 53.1034 29.938C53.3434 29.938 53.5474 29.926 53.7154 29.902C53.8954 29.866 54.0394 29.824 54.1474 29.776V31C54.0274 31.048 53.8534 31.084 53.6254 31.108C53.4094 31.144 53.1634 31.162 52.8874 31.162ZM48.0814 23.044V21.82H54.1474V23.044H48.0814ZM55.2409 21.802V21.064C55.6489 21.016 55.9369 20.86 56.1049 20.596C56.2729 20.332 56.3569 19.912 56.3569 19.336L56.8969 19.408H55.2589V17.608H57.1849V19.012C57.1849 19.78 57.0289 20.41 56.7169 20.902C56.4169 21.394 55.9249 21.694 55.2409 21.802ZM61.6634 31.18C60.5354 31.18 59.6354 30.922 58.9634 30.406C58.2914 29.878 57.9074 29.134 57.8114 28.174H59.1974C59.2814 28.762 59.5394 29.212 59.9714 29.524C60.4034 29.836 60.9794 29.992 61.6994 29.992C62.3354 29.992 62.8334 29.872 63.1934 29.632C63.5534 29.392 63.7334 29.05 63.7334 28.606C63.7334 28.294 63.6314 28.024 63.4274 27.796C63.2234 27.556 62.8154 27.358 62.2034 27.202L60.7274 26.824C59.8874 26.608 59.2574 26.278 58.8374 25.834C58.4174 25.378 58.2074 24.838 58.2074 24.214C58.2074 23.422 58.5014 22.798 59.0894 22.342C59.6774 21.874 60.4754 21.64 61.4834 21.64C62.4794 21.64 63.2894 21.88 63.9134 22.36C64.5374 22.84 64.8914 23.506 64.9754 24.358H63.5894C63.5054 23.866 63.2774 23.488 62.9054 23.224C62.5334 22.96 62.0414 22.828 61.4294 22.828C60.8414 22.828 60.3854 22.942 60.0614 23.17C59.7374 23.386 59.5754 23.698 59.5754 24.106C59.5754 24.418 59.6894 24.688 59.9174 24.916C60.1574 25.144 60.5534 25.336 61.1054 25.492L62.5454 25.888C63.3974 26.116 64.0394 26.464 64.4714 26.932C64.9034 27.4 65.1194 27.964 65.1194 28.624C65.1194 29.428 64.8134 30.058 64.2014 30.514C63.5894 30.958 62.7434 31.18 61.6634 31.18ZM74.3147 31V19.336H69.8687V18.04H80.2367V19.336H75.7907V31H74.3147ZM86.1385 31C86.0905 30.796 86.0545 30.562 86.0305 30.298C86.0185 30.034 86.0125 29.698 86.0125 29.29H85.9225V24.898C85.9225 24.202 85.7605 23.692 85.4365 23.368C85.1245 23.032 84.6145 22.864 83.9065 22.864C83.2105 22.864 82.6525 23.008 82.2325 23.296C81.8245 23.572 81.5965 23.968 81.5485 24.484H80.1625C80.2225 23.596 80.5945 22.9 81.2785 22.396C81.9625 21.892 82.8565 21.64 83.9605 21.64C85.1005 21.64 85.9465 21.91 86.4985 22.45C87.0505 22.99 87.3265 23.8 87.3265 24.88V29.29C87.3265 29.554 87.3445 29.83 87.3805 30.118C87.4165 30.394 87.4645 30.688 87.5245 31H86.1385ZM82.9885 31.18C82.0405 31.18 81.2845 30.952 80.7205 30.496C80.1685 30.028 79.8925 29.392 79.8925 28.588C79.8925 27.784 80.1685 27.16 80.7205 26.716C81.2725 26.272 82.0765 25.96 83.1325 25.78L86.3365 25.24V26.428L83.3485 26.896C82.6765 27.004 82.1665 27.184 81.8185 27.436C81.4705 27.688 81.2965 28.054 81.2965 28.534C81.2965 29.002 81.4525 29.356 81.7645 29.596C82.0885 29.836 82.5625 29.956 83.1865 29.956C83.9905 29.956 84.6445 29.776 85.1485 29.416C85.6645 29.044 85.9225 28.564 85.9225 27.976L86.1565 29.254C85.9645 29.866 85.5865 30.34 85.0225 30.676C84.4705 31.012 83.7925 31.18 82.9885 31.18ZM90.1021 31V18.04H91.5421V31H90.1021ZM94.4263 31V17.68H95.8663V31H94.4263ZM100.42 31L95.5423 26.23L100.24 21.82H102.22L96.9463 26.644L97.0363 25.798L102.4 31H100.42Z" fill="white"/>
<mask id="mask0_1_25201" style="mask-type:alpha" maskUnits="userSpaceOnUse" x="111" y="13" width="24" height="24">
<rect x="111" y="13" width="24" height="24" fill="#D9D9D9"/>
</mask>
<g mask="url(#mask0_1_25201)">
<path d="M115 33C114.45 33 113.979 32.8042 113.588 32.4125C113.196 32.0208 113 31.55 113 31V19C113 18.45 113.196 17.9792 113.588 17.5875C113.979 17.1958 114.45 17 115 17H131C131.55 17 132.021 17.1958 132.413 17.5875C132.804 17.9792 133 18.45 133 19V31C133 31.55 132.804 32.0208 132.413 32.4125C132.021 32.8042 131.55 33 131 33H115ZM123 26L115 21V31H131V21L123 26ZM123 24L131 19H115L123 24ZM115 21V19V31V21Z" fill="white"/>
</g>
</g>
<defs>
<filter id="filter0_d_1_25201" x="0" y="-7" width="163" height="72" filterUnits="userSpaceOnUse" color-interpolation-filters="sRGB">
<feFlood flood-opacity="0" result="BackgroundImageFix"/>
<feColorMatrix in="SourceAlpha" type="matrix" values="0 0 0 0 0 0 0 0 0 0 0 0 0 0 0 0 0 0 127 0" result="hardAlpha"/>
<feOffset dy="4"/>
<feGaussianBlur stdDeviation="6"/>
<feComposite in2="hardAlpha" operator="out"/>
<feColorMatrix type="matrix" values="0 0 0 0 0 0 0 0 0 0 0 0 0 0 0 0 0 0 0.2 0"/>
<feBlend mode="normal" in2="BackgroundImageFix" result="effect1_dropShadow_1_25201"/>
<feBlend mode="normal" in="SourceGraphic" in2="effect1_dropShadow_1_25201" result="shape"/>
</filter>
</defs>
</svg>
